<svg width="18" height="18" viewBox="0 0 18 18" fill="none" xmlns="http://www.w3.org/2000/svg">
<rect width="18" height="18" rx="9" fill="white"/>
<path d="M7.84205 13.9426L5.57881 12.6852C5.40268 12.5874 5.25655 12.4473 5.155 12.2789C5.05344 12.1105 5 11.9197 5 11.7255L5 4.78168C5 4.4601 5.36628 4.25974 5.65795 4.42177L7.92119 5.67913C8.09732 5.77698 8.24344 5.91709 8.345 6.08549C8.44656 6.25388 8.5 6.44469 8.5 6.63889L8.5 13.5827C8.5 13.9043 8.13372 14.1047 7.84205 13.9426ZM9.08333 6.63889L9.08333 12.3333L9.95833 12.3333C10.4416 12.3333 10.8333 11.9602 10.8333 11.5L10.8333 8.72222L12 7.61111L12 4.83333C12 4.37309 11.6083 4 11.125 4L6.05645 4L8.21512 5.19925C8.75065 5.49677 9.08333 6.04842 9.08333 6.63889Z" fill="#0038FF"/>
</svg>
